<svg width="16" height="16" viewBox="0 0 16 16" fill="none" xmlns="http://www.w3.org/2000/svg">
<path d="M16 8C16 12.4183 12.4183 16 8 16C3.58172 16 0 12.4183 0 8C0 3.58172 3.58172 0 8 0C12.4183 0 16 3.58172 16 8Z" fill="white"/>
<path d="M8.00368 12.5182C7.69968 12.5182 7.45568 12.4222 7.27168 12.2302C7.08768 12.0462 6.99568 11.8022 6.99568 11.4982V8.99019L4.22368 4.91019C4.14368 4.79019 4.09168 4.67019 4.06768 4.55019C4.04368 4.43019 4.04368 4.31819 4.06768 4.21419C4.09168 4.10219 4.13568 3.99819 4.19968 3.90219C4.26368 3.80619 4.34368 3.72619 4.43968 3.66219C4.65568 3.51019 4.89168 3.45419 5.14768 3.49419C5.41168 3.53419 5.62368 3.67019 5.78368 3.90219L8.00368 7.14219L10.2237 3.90219C10.3837 3.67019 10.5917 3.53419 10.8477 3.49419C11.1117 3.45419 11.3517 3.51019 11.5677 3.66219C11.7597 3.79819 11.8797 3.98219 11.9277 4.21419C11.9837 4.44619 11.9357 4.67819 11.7837 4.91019L9.01168 8.99019V11.4982C9.01168 11.8022 8.91968 12.0462 8.73568 12.2302C8.55168 12.4222 8.30768 12.5182 8.00368 12.5182Z" fill="black"/>
</svg>
